<svg xmlns="http://www.w3.org/2000/svg" viewBox="0 0 51 51" shape-rendering="crispEdges"><path fill="#ffffff" d="M0 0h51v51H0z"/><path stroke="#1A1A1A" d="M1 1.5h7m1 0h5m1 0h1m1 0h5m5 0h3m1 0h1m4 0h1m4 0h1m1 0h7M1 2.5h1m5 0h1m1 0h3m3 0h1m1 0h1m2 0h2m4 0h1m4 0h2m1 0h3m2 0h3m1 0h1m5 0h1M1 3.5h1m1 0h3m1 0h1m1 0h1m1 0h3m1 0h4m2 0h2m4 0h1m1 0h4m1 0h3m3 0h2m1 0h1m1 0h3m1 0h1M1 4.5h1m1 0h3m1 0h1m4 0h1m1 0h1m4 0h5m1 0h3m3 0h1m1 0h1m2 0h2m2 0h1m2 0h1m1 0h3m1 0h1M1 5.5h1m1 0h3m1 0h1m4 0h1m1 0h1m1 0h1m1 0h3m2 0h7m2 0h1m5 0h1m4 0h1m1 0h3m1 0h1M1 6.5h1m5 0h1m1 0h4m2 0h2m3 0h2m1 0h1m3 0h1m2 0h1m2 0h4m2 0h1m3 0h1m5 0h1M1 7.5h7m1 0h1m1 0h1m1 0h1m1 0h1m1 0h1m1 0h1m1 0h1m1 0h1m1 0h1m1 0h1m1 0h1m1 0h1m1 0h1m1 0h1m1 0h1m1 0h1m1 0h1m1 0h7M9 8.5h4m2 0h2m1 0h3m2 0h1m3 0h1m2 0h1m1 0h2m1 0h3m1 0h2M3 9.5h3m1 0h1m1 0h1m3 0h1m3 0h2m1 0h1m1 0h7m2 0h5m1 0h2m1 0h5m2 0h3M1 10.5h3m4 0h1m1 0h3m1 0h1m1 0h3m1 0h2m2 0h1m1 0h2m1 0h1m2 0h1m3 0h3m1 0h1m1 0h2m3 0h1M1 11.5h1m1 0h3m1 0h3m1 0h1m3 0h2m2 0h1m1 0h2m4 0h1m1 0h1m1 0h2m1 0h2m1 0h1m1 0h1m2 0h1m3 0h1m2 0h1M1 12.5h1m1 0h1m5 0h3m3 0h4m1 0h1m1 0h3m1 0h2m2 0h1m4 0h1m2 0h2m2 0h2m1 0h2m1 0h2M1 13.5h1m2 0h1m2 0h1m5 0h1m1 0h7m5 0h1m1 0h2m4 0h4m1 0h4m3 0h1M2 14.5h1m1 0h1m1 0h1m2 0h1m1 0h1m1 0h2m2 0h1m2 0h1m2 0h1m1 0h2m1 0h6m3 0h2m1 0h1m1 0h2m1 0h1m1 0h1M1 15.5h1m5 0h5m1 0h3m3 0h1m1 0h7m2 0h2m1 0h5m1 0h3m2 0h2m1 0h3M2 16.5h2m2 0h1m4 0h4m1 0h7m1 0h1m2 0h2m1 0h3m2 0h1m2 0h4m1 0h1m1 0h1m3 0h1M7 17.5h3m4 0h2m3 0h1m1 0h1m1 0h3m3 0h1m1 0h1m2 0h2m1 0h1m1 0h1m2 0h3m1 0h4M6 18.5h1m2 0h1m1 0h1m2 0h1m4 0h3m4 0h2m1 0h1m1 0h2m2 0h2m1 0h3m2 0h1m2 0h2M2 19.5h3m2 0h1m4 0h3m1 0h3m1 0h1m2 0h2m1 0h3m1 0h1m3 0h1m2 0h1m4 0h3m1 0h1m2 0h1M1 20.5h6m1 0h1m1 0h4m1 0h3m1 0h1m1 0h1m1 0h1m5 0h1m3 0h1m4 0h3m2 0h3m2 0h2M1 21.5h1m3 0h3m1 0h1m2 0h1m5 0h1m1 0h1m1 0h1m1 0h1m1 0h3m3 0h1m1 0h1m1 0h4m1 0h1m1 0h2m2 0h1m1 0h1M3 22.5h1m2 0h1m2 0h1m1 0h1m1 0h2m1 0h4m1 0h4m1 0h1m1 0h2m6 0h2m2 0h1m1 0h2m3 0h1M1 23.5h1m3 0h5m1 0h4m1 0h1m1 0h2m1 0h1m1 0h7m2 0h4m1 0h1m1 0h1m1 0h5m2 0h2M2 24.5h1m1 0h2m3 0h1m2 0h1m1 0h1m7 0h2m3 0h1m1 0h1m1 0h2m5 0h2m1 0h1m3 0h1m3 0h1M1 25.5h2m1 0h2m1 0h1m1 0h1m1 0h2m1 0h4m1 0h5m1 0h1m1 0h1m3 0h1m2 0h1m1 0h3m2 0h1m1 0h1m1 0h1m1 0h1M3 26.5h3m3 0h6m2 0h3m1 0h3m3 0h1m1 0h1m2 0h1m5 0h1m2 0h1m3 0h3M3 27.5h7m2 0h1m1 0h2m2 0h1m2 0h10m4 0h1m1 0h9m2 0h2M3 28.5h1m1 0h1m3 0h1m1 0h1m1 0h1m1 0h1m1 0h1m1 0h1m1 0h1m5 0h2m2 0h1m1 0h1m1 0h1m2 0h2m1 0h2m1 0h1m3 0h2M1 29.5h1m1 0h1m1 0h1m1 0h1m3 0h1m1 0h2m4 0h2m2 0h1m2 0h1m2 0h1m2 0h1m1 0h1m1 0h2m1 0h4m3 0h2M2 30.5h1m1 0h2m2 0h1m1 0h2m1 0h2m1 0h2m1 0h1m1 0h1m2 0h4m2 0h2m6 0h1m2 0h2m1 0h2m1 0h1M2 31.5h3m1 0h2m1 0h1m1 0h2m1 0h1m3 0h2m1 0h1m1 0h3m1 0h1m2 0h1m1 0h1m2 0h5m1 0h3m1 0h5M6 32.5h1m2 0h4m2 0h4m1 0h2m2 0h1m2 0h1m2 0h1m3 0h2m1 0h3m1 0h2m1 0h2m2 0h2M2 33.5h1m1 0h2m1 0h3m1 0h3m4 0h1m1 0h5m1 0h3m1 0h5m1 0h1m1 0h1m1 0h3m2 0h4M1 34.5h2m1 0h1m1 0h1m1 0h1m1 0h1m1 0h1m4 0h2m1 0h1m1 0h2m1 0h1m1 0h5m1 0h1m4 0h1m1 0h2m2 0h1m2 0h2M1 35.5h1m1 0h6m3 0h1m2 0h1m4 0h1m1 0h2m2 0h1m3 0h4m1 0h2m1 0h3m1 0h2m3 0h3M4 36.5h2m2 0h2m5 0h1m3 0h1m1 0h3m1 0h3m4 0h2m1 0h2m4 0h2m1 0h1m3 0h2M2 37.5h1m1 0h2m1 0h1m3 0h2m4 0h1m1 0h6m1 0h1m1 0h5m3 0h3m1 0h1m2 0h5m1 0h1M1 38.5h3m4 0h1m3 0h3m1 0h2m5 0h1m2 0h1m1 0h2m2 0h1m3 0h3m4 0h2m2 0h2M2 39.5h1m3 0h2m1 0h4m1 0h4m4 0h4m8 0h8m1 0h2m1 0h4M2 40.5h3m4 0h1m1 0h1m1 0h1m1 0h2m8 0h4m1 0h2m1 0h2m1 0h1m9 0h1m1 0h1M1 41.5h3m3 0h1m1 0h3m2 0h4m4 0h7m3 0h1m3 0h3m1 0h7m2 0h1M9 42.5h1m1 0h3m4 0h1m1 0h4m3 0h1m2 0h2m2 0h1m2 0h1m3 0h1m3 0h1M1 43.5h7m2 0h1m1 0h1m2 0h1m3 0h2m1 0h2m1 0h1m1 0h1m1 0h2m1 0h1m3 0h3m2 0h1m1 0h1m1 0h2m1 0h2M1 44.5h1m5 0h1m2 0h2m2 0h1m3 0h2m3 0h1m3 0h5m1 0h2m3 0h4m3 0h1M1 45.5h1m1 0h3m1 0h1m1 0h2m3 0h1m1 0h2m2 0h2m1 0h6m1 0h3m3 0h10m1 0h2M1 46.5h1m1 0h3m1 0h1m1 0h1m1 0h1m1 0h5m1 0h1m1 0h1m2 0h1m2 0h2m1 0h4m4 0h1m1 0h1m1 0h1m2 0h2m2 0h1M1 47.5h1m1 0h3m1 0h1m1 0h1m2 0h1m1 0h1m6 0h6m4 0h2m1 0h2m1 0h3m1 0h4m2 0h3M1 48.5h1m5 0h1m2 0h2m5 0h1m2 0h3m1 0h1m2 0h1m2 0h2m1 0h1m2 0h1m3 0h6m3 0h1M1 49.5h7m2 0h1m2 0h3m2 0h1m1 0h2m1 0h2m1 0h1m2 0h4m3 0h2m3 0h1m2 0h2m1 0h3"/></svg>
