<svg xmlns="http://www.w3.org/2000/svg" viewBox="0 0 59 59" shape-rendering="crispEdges"><path fill="#ffffff" d="M0 0h59v59H0z"/><path stroke="#1A1A1A" d="M1 1.5h7m1 0h2m4 0h1m1 0h1m1 0h1m1 0h2m1 0h1m1 0h1m1 0h3m1 0h2m3 0h2m3 0h4m1 0h2m2 0h7M1 2.5h1m5 0h1m1 0h1m1 0h1m2 0h1m4 0h1m4 0h1m1 0h1m3 0h2m2 0h1m1 0h2m1 0h1m4 0h2m2 0h1m2 0h1m5 0h1M1 3.5h1m1 0h3m1 0h1m1 0h2m1 0h1m1 0h1m1 0h3m3 0h3m1 0h2m5 0h1m2 0h1m3 0h2m3 0h4m2 0h1m1 0h3m1 0h1M1 4.5h1m1 0h3m1 0h1m2 0h1m1 0h1m2 0h1m4 0h1m4 0h2m1 0h4m5 0h2m3 0h3m3 0h1m2 0h1m1 0h3m1 0h1M1 5.5h1m1 0h3m1 0h1m2 0h1m2 0h1m1 0h4m6 0h9m1 0h4m2 0h5m2 0h1m2 0h1m1 0h3m1 0h1M1 6.5h1m5 0h1m1 0h3m5 0h4m1 0h1m1 0h1m1 0h2m3 0h1m1 0h3m1 0h3m4 0h2m1 0h1m3 0h1m5 0h1M1 7.5h7m1 0h1m1 0h1m1 0h1m1 0h1m1 0h1m1 0h1m1 0h1m1 0h1m1 0h1m1 0h1m1 0h1m1 0h1m1 0h1m1 0h1m1 0h1m1 0h1m1 0h1m1 0h1m1 0h1m1 0h1m1 0h1m1 0h7M9 8.5h3m2 0h2m5 0h1m1 0h1m1 0h1m1 0h1m3 0h1m3 0h7m1 0h1m1 0h1m1 0h2M3 9.5h3m1 0h1m1 0h1m2 0h1m2 0h7m2 0h2m1 0h6m1 0h3m1 0h2m4 0h1m5 0h3m2 0h3M1 10.5h1m3 0h2m1 0h1m5 0h3m7 0h2m1 0h1m1 0h2m2 0h5m5 0h2m3 0h3m1 0h1m1 0h1m2 0h1M1 11.5h2m2 0h1m1 0h1m1 0h1m6 0h2m1 0h1m1 0h1m2 0h2m4 0h3m1 0h3m8 0h2m2 0h1m1 0h1m2 0h3M1 12.5h1m2 0h1m1 0h1m1 0h8m2 0h1m1 0h1m4 0h3m2 0h2m2 0h2m1 0h2m2 0h1m1 0h1m1 0h2m1 0h1m1 0h1m2 0h1m1 0h2M2 13.5h3m2 0h3m1 0h2m4 0h1m2 0h3m7 0h1m3 0h1m3 0h1m1 0h1m1 0h3m2 0h1m6 0h1m1 0h1M1 14.5h1m4 0h1m2 0h1m3 0h1m2 0h1m2 0h4m1 0h1m2 0h1m2 0h1m2 0h2m3 0h1m4 0h2m1 0h1m1 0h3m1 0h1m2 0h3M1 15.5h5m1 0h3m5 0h1m1 0h1m2 0h2m4 0h4m1 0h1m2 0h1m4 0h1m2 0h1m4 0h5m4 0h1M5 16.5h2m1 0h2m2 0h2m1 0h4m7 0h1m2 0h2m1 0h2m3 0h1m3 0h6m1 0h1m4 0h1m1 0h1M2 17.5h2m1 0h1m1 0h1m1 0h1m2 0h1m2 0h2m3 0h2m1 0h1m2 0h3m1 0h1m1 0h1m1 0h1m4 0h2m2 0h2m3 0h1m2 0h1m2 0h1M1 18.5h1m2 0h1m1 0h1m1 0h4m1 0h1m3 0h2m1 0h3m1 0h1m1 0h1m3 0h1m2 0h5m2 0h4m1 0h2m2 0h1m2 0h1m3 0h2M1 19.5h1m2 0h1m2 0h1m5 0h3m2 0h1m2 0h3m1 0h2m4 0h2m3 0h4m2 0h10m1 0h4M4 20.5h2m3 0h2m1 0h5m1 0h1m2 0h1m1 0h3m1 0h1m1 0h2m2 0h1m1 0h1m1 0h1m2 0h3m2 0h1m2 0h1m4 0h3m1 0h1M2 21.5h3m1 0h2m2 0h2m1 0h2m3 0h3m1 0h1m1 0h1m1 0h3m3 0h1m1 0h1m1 0h3m5 0h1m1 0h1m1 0h1m1 0h2m2 0h1m1 0h2M1 22.5h1m2 0h2m2 0h1m1 0h1m2 0h2m1 0h3m1 0h1m3 0h1m1 0h1m1 0h1m1 0h1m3 0h1m1 0h3m1 0h4m1 0h1m2 0h2m4 0h1m1 0h2M1 23.5h3m3 0h3m1 0h1m1 0h1m4 0h3m1 0h1m1 0h1m6 0h2m2 0h3m1 0h2m3 0h1m3 0h1m1 0h2m1 0h1m2 0h1M1 24.5h2m1 0h3m1 0h2m2 0h2m2 0h1m1 0h1m5 0h1m3 0h2m1 0h1m8 0h2m1 0h1m1 0h1m3 0h2m1 0h4M1 25.5h2m1 0h1m1 0h3m1 0h2m5 0h3m5 0h1m3 0h1m1 0h1m1 0h4m2 0h1m2 0h1m1 0h1m1 0h1m4 0h2m1 0h2M3 26.5h3m2 0h3m1 0h3m1 0h1m1 0h3m2 0h9m5 0h1m2 0h5m1 0h1m1 0h3m3 0h2m1 0h1M5 27.5h5m1 0h1m1 0h2m1 0h6m1 0h1m3 0h6m1 0h1m1 0h5m3 0h1m2 0h1m1 0h8M2 28.5h1m2 0h1m3 0h1m1 0h5m7 0h1m1 0h1m1 0h1m3 0h3m2 0h3m1 0h4m1 0h2m1 0h2m3 0h5M1 29.5h1m1 0h3m1 0h1m1 0h2m1 0h5m3 0h2m2 0h2m1 0h1m1 0h1m1 0h1m1 0h1m1 0h1m1 0h2m3 0h3m1 0h4m1 0h1m1 0h1m2 0h2M1 30.5h1m2 0h2m3 0h1m1 0h2m1 0h1m1 0h3m1 0h1m1 0h3m1 0h2m3 0h2m2 0h3m2 0h5m1 0h1m1 0h2m3 0h3m1 0h1M1 31.5h3m1 0h5m3 0h3m1 0h5m1 0h3m1 0h5m2 0h2m1 0h5m2 0h1m2 0h7m2 0h1M1 32.5h1m1 0h1m2 0h1m2 0h3m1 0h2m2 0h1m2 0h3m1 0h1m3 0h2m3 0h1m4 0h1m2 0h2m2 0h4m2 0h2m1 0h3M3 33.5h5m1 0h2m2 0h5m2 0h1m1 0h5m1 0h1m1 0h2m1 0h3m1 0h3m2 0h3m4 0h1m3 0h1m2 0h2M1 34.5h2m1 0h1m3 0h2m3 0h4m2 0h1m2 0h5m5 0h1m2 0h3m2 0h1m2 0h3m3 0h4m2 0h3M1 35.5h1m3 0h1m1 0h4m2 0h1m1 0h1m1 0h4m2 0h2m1 0h1m1 0h1m1 0h2m1 0h1m1 0h1m1 0h3m1 0h1m4 0h2M1 36.5h4m3 0h2m1 0h1m4 0h3m1 0h2m1 0h3m2 0h1m1 0h9m2 0h3m1 0h2m1 0h2m1 0h2m1 0h2m1 0h1M2 37.5h2m1 0h7m3 0h1m1 0h2m1 0h1m1 0h7m4 0h1m1 0h2m3 0h1m2 0h1m2 0h2m2 0h1m1 0h2M2 38.5h2m1 0h2m2 0h1m4 0h1m1 0h2m2 0h1m2 0h2m7 0h1m1 0h1m1 0h1m1 0h1m4 0h3m2 0h1m1 0h1m4 0h1m1 0h1M1 39.5h1m2 0h1m1 0h2m1 0h1m2 0h6m4 0h1m1 0h1m2 0h1m1 0h1m1 0h2m2 0h3m1 0h1m2 0h1m1 0h4m1 0h2m1 0h1m1 0h2M2 40.5h5m4 0h2m2 0h1m1 0h1m2 0h3m1 0h4m1 0h3m3 0h2m1 0h5m2 0h1m2 0h1m2 0h1m2 0h4M1 41.5h3m2 0h2m1 0h4m1 0h1m4 0h2m1 0h3m2 0h2m2 0h1m1 0h1m1 0h1m3 0h1m2 0h3m1 0h1m2 0h2m1 0h2M3 42.5h4m2 0h1m2 0h1m1 0h4m7 0h1m2 0h2m2 0h1m2 0h6m2 0h3m2 0h1m7 0h2M2 43.5h2m1 0h3m2 0h2m4 0h1m1 0h2m2 0h1m1 0h2m4 0h2m1 0h2m2 0h1m4 0h1m3 0h1m2 0h2m2 0h1m1 0h1M1 44.5h2m1 0h1m3 0h4m1 0h3m2 0h2m1 0h1m5 0h4m1 0h1m4 0h1m1 0h5m1 0h4m1 0h2m1 0h4M1 45.5h7m9 0h2m1 0h2m2 0h4m3 0h1m1 0h6m3 0h1m1 0h1m1 0h2m5 0h1m2 0h1M2 46.5h2m1 0h1m2 0h1m1 0h2m1 0h3m2 0h1m3 0h2m2 0h1m1 0h1m2 0h1m1 0h3m2 0h1m4 0h4m1 0h3m4 0h3M1 47.5h1m1 0h1m2 0h4m3 0h1m2 0h2m4 0h2m1 0h1m1 0h1m5 0h5m1 0h1m1 0h2m1 0h1m1 0h2m1 0h2m1 0h2m1 0h2M1 48.5h5m2 0h1m3 0h2m1 0h3m3 0h1m3 0h3m3 0h1m4 0h2m3 0h1m1 0h1m1 0h1m1 0h3m1 0h1m1 0h1m1 0h3M7 49.5h2m2 0h1m2 0h1m1 0h1m1 0h3m1 0h3m2 0h6m4 0h2m3 0h1m1 0h1m1 0h2m1 0h6m1 0h2M9 50.5h2m5 0h2m1 0h1m1 0h1m5 0h1m3 0h2m2 0h1m5 0h4m4 0h1m3 0h3m1 0h1M1 51.5h7m3 0h4m3 0h7m2 0h1m1 0h1m1 0h1m1 0h6m2 0h1m2 0h1m1 0h4m1 0h1m1 0h1m1 0h1M1 52.5h1m5 0h1m4 0h2m1 0h2m1 0h3m3 0h4m3 0h1m1 0h3m2 0h1m1 0h2m2 0h2m3 0h1m3 0h3M1 53.5h1m1 0h3m1 0h1m1 0h1m1 0h5m4 0h1m2 0h1m2 0h7m2 0h4m3 0h2m5 0h5m2 0h1M1 54.5h1m1 0h3m1 0h1m1 0h1m1 0h1m3 0h1m1 0h1m3 0h1m4 0h2m7 0h1m2 0h2m2 0h3m5 0h1m2 0h1m1 0h1M1 55.5h1m1 0h3m1 0h1m1 0h2m1 0h1m1 0h3m2 0h2m1 0h1m3 0h2m1 0h1m3 0h6m2 0h2m1 0h1m2 0h1m1 0h2m3 0h1M1 56.5h1m5 0h1m3 0h1m2 0h1m1 0h1m1 0h3m1 0h4m3 0h3m1 0h1m1 0h1m5 0h3m1 0h2m1 0h3m1 0h1m1 0h2M1 57.5h7m2 0h3m1 0h3m1 0h7m4 0h3m2 0h2m2 0h1m3 0h3m4 0h1m1 0h3m2 0h1"/></svg>
